<?xml version="1.0" encoding="UTF-8"?>
<svg id="Layer_1" data-name="Layer 1" xmlns="http://www.w3.org/2000/svg" viewBox="0 0 796 354">
  <defs>
    <style>
      .cls-1, .cls-2 {
        fill: #fff;
      }

      .cls-2 {
        stroke: #fff;
        stroke-miterlimit: 10;
        stroke-width: 2px;
      }
    </style>
  </defs>
  <path class="cls-1" d="m433.6,243.96c-1.68-2.87-2.53-5.95-2.53-9.24,0-3.49.81-6.52,2.44-9.1.12-.15.17-.31.17-.47s-.06-.28-.17-.38l-.64-.52c-.06-.04-.14-.06-.26-.06-.19,0-.39.13-.58.41-2.11,2.96-3.17,6.3-3.17,10.02v.06c0,3.45,1.09,6.85,3.28,10.2.15.23.3.35.44.35.1,0,.2-.04.32-.12.25-.19.45-.34.59-.44.15-.1.22-.21.22-.35,0-.12-.04-.24-.12-.38m15.78-12.44c0-1.86-.52-3.28-1.55-4.27-1.04-.99-2.44-1.48-4.2-1.48-2.33,0-4.35.5-6.08,1.51-.17.1-.2.25-.09.47l.55.99c.1.15.24.17.44.06,1.32-.83,2.8-1.25,4.45-1.25,2.67,0,4.01,1.37,4.01,4.1v10.93c0,.35.17.52.52.52h1.45c.33,0,.5-.18.5-.55v-11.01Zm9.15-7.67h-1.71c-.25,0-.43.14-.52.41l-1.48,4.27c-.04.16-.06.24-.06.26,0,.15.12.27.35.35.35.17.56.27.64.29.23.06.34.09.32.09.1,0,.19-.1.29-.29l2.53-4.77c.08-.16.12-.28.12-.38,0-.15-.15-.23-.46-.23m-4.04,0h-1.74c-.25,0-.43.14-.52.41l-1.48,4.27c-.04.12-.06.2-.06.23,0,.14.13.26.38.38.31.17.51.27.61.29.23.06.34.09.32.09.1,0,.19-.1.29-.29l2.53-4.77c.1-.17.15-.3.15-.38,0-.15-.15-.23-.47-.23m18.41,2.25c-.05-.07-.17-.11-.36-.13l-1.51-.14c-.33-.04-.5.1-.52.41l-.64,8.96c-.23,3.27-1.45,5.36-3.66,6.27l-3.54-15.2c-.08-.37-.31-.51-.7-.44l-1.51.29c-.31.06-.41.32-.29.79l3.92,15.17-3.86,1.07c-.21.06-.32.17-.32.32,0,.04.02.1.06.2l.29.9c.08.23.24.31.5.23l5.69-1.66c3.7-1.07,5.69-3.76,5.96-8.07l.55-8.57c.02-.2,0-.33-.04-.39m9.52,8.61c0-3.74-1.06-7.11-3.17-10.11-.19-.27-.38-.41-.55-.41-.1,0-.18.03-.26.09l-.67.49c-.12.12-.18.23-.18.35,0,.15.06.32.18.49,1.63,2.58,2.44,5.61,2.44,9.1,0,3.26-.83,6.33-2.5,9.21-.08.13-.12.26-.12.38,0,.17.07.3.2.38.39.27.59.42.61.44.14.08.24.12.32.12.15,0,.31-.12.47-.35,2.17-3.27,3.26-6.67,3.26-10.2l-.03.03Zm23.92-2.85c-.12-2.13-.82-3.72-2.12-4.77-1.12-.91-2.64-1.36-4.53-1.36-2.5,0-4.83.5-7,1.51-.25.12-.31.31-.17.58l.41.78c.1.2.25.25.47.18l1.34-.47-.23,10.35c-.04,2.03-1,3.13-2.88,3.28-.31.02-.41.22-.29.61l.23.79c.04.15.17.23.38.23,3.27-.31,4.93-1.96,4.97-4.94l.17-10.84c.72-.27,1.45-.41,2.21-.41,2.89,0,4.42,1.48,4.59,4.45l.64,10.81c.02.39.18.56.5.52l1.39-.17c.35-.04.51-.21.49-.52l-.55-10.61Zm6.6-5.29c0-.37-.17-.55-.49-.55h-1.45c-.35,0-.52.19-.52.58v8.66c0,.31.16.4.47.26l1.51-.67c.33-.15.49-.4.49-.73v-7.55Zm16.42,15.17c0-.25-.1-.38-.29-.38h-1.34v-9.94c0-3.78-2.01-5.67-6.02-5.67-2.17,0-3.95.54-5.34,1.63-.18.14-.18.33,0,.58l.46.7c.15.23.35.26.58.09,1.08-.87,2.44-1.31,4.07-1.31,1.1,0,2,.31,2.67.93.74.7,1.1,1.73,1.1,3.08v9.91h-8.66c-.25,0-.38.13-.38.38v.99c0,.23.13.35.38.35h12.47c.19,0,.29-.11.29-.32v-1.02Zm5.58-15.17c0-.37-.17-.55-.49-.55h-1.45c-.35,0-.52.19-.52.58v8.66c0,.31.16.4.47.26l1.51-.67c.33-.15.49-.4.49-.73v-7.55Zm13.03,1.63c-1.37-1.65-3.1-2.47-5.22-2.47-1.96,0-3.52.47-4.68,1.42-.23.19-.28.39-.15.58l.49.76c.13.21.32.23.55.06.89-.72,1.92-1.07,3.08-1.07,1.65,0,2.95.62,3.92,1.86.97,1.24,1.45,2.94,1.45,5.11s-.49,3.88-1.45,5.2c-.97,1.32-2.28,1.97-3.92,1.97-1.03,0-2.05-.38-3.05-1.13-.25-.19-.45-.17-.61.09l-.44.67c-.16.25-.12.47.12.64,1.32.95,2.88,1.42,4.68,1.42,2.15,0,3.91-.86,5.29-2.58,1.32-1.69,1.98-3.77,1.98-6.25s-.68-4.63-2.05-6.28m24.63-.84c-1.09-1.12-2.81-1.69-5.17-1.69-3.06,0-5.53.47-7.41,1.39-.19.1-.29.23-.29.4,0,.16.08.29.23.41.27.19.51.39.73.58l.38,6.01c.15,2.55.77,4.63,1.86,6.24,1.16,1.74,2.69,2.61,4.56,2.61,1.98,0,3.61-.92,4.91-2.77,1.3-1.85,1.95-4.25,1.95-7.21,0-2.79-.58-4.78-1.74-5.98m-1.99,12.03c-.79,1.51-1.83,2.26-3.12,2.26-2.36,0-3.69-2.37-3.98-7.1l-.41-6.44c1.22-.54,2.58-.81,4.07-.81,1.61,0,2.77.45,3.49,1.36.76.97,1.13,2.53,1.13,4.7,0,2.51-.39,4.52-1.18,6.03m9.81-12.82c0-.37-.17-.55-.49-.55h-1.45c-.35,0-.52.19-.52.58v8.66c0,.31.15.4.46.26l1.51-.67c.33-.15.49-.4.49-.73v-7.55Zm16.36,1.37c-.85-1.36-2.09-2.04-3.72-2.04-1.49,0-2.69.63-3.6,1.89-.14.19-.11.37.09.52l.58.38c.27.17.49.14.64-.09.47-.66,1.12-.99,1.98-.99,1.84,0,2.76,1.82,2.76,5.46,0,2.4-.3,4.36-.9,5.87-.74,1.82-1.85,2.73-3.34,2.73-2.42,0-3.79-2.37-4.1-7.1l-.52-8.18c-.02-.37-.22-.53-.61-.5l-1.48.15c-.27.02-.39.25-.35.7l.55,8.26c.18,2.48.82,4.47,1.95,5.97,1.18,1.55,2.7,2.33,4.56,2.33,2.17,0,3.86-1.04,5.09-3.11,1.11-1.86,1.66-4.21,1.66-7.06,0-2.21-.41-3.94-1.22-5.2m7.47-1.37c0-.37-.17-.55-.5-.55h-1.45c-.35,0-.52.19-.52.58v8.66c0,.31.15.4.47.26l1.51-.67c.33-.15.5-.4.5-.73v-7.55Zm13.34-.55h-7.5l-.44-5.4c-.02-.19-.13-.29-.35-.29l-1.6.17c-.27.04-.4.17-.38.41l.47,6.48c.02.23.12.35.29.35h8.25c.15,0,.23.1.23.29l-1.05,8.57c-.19,1.59-.47,2.67-.84,3.26-.72,1.12-2.05,1.79-4.01,2.01-.24.02-.31.14-.24.38l.15.84c.04.21.18.31.41.29,2.46-.13,4.24-.86,5.35-2.18.83-1.03,1.39-2.64,1.69-4.82l1.13-8.6c.15-1.16-.37-1.74-1.57-1.74m7.87.55c0-.37-.15-.55-.47-.55h-1.45c-.35,0-.52.19-.52.58v15.98c0,.33.17.49.49.49h1.45c.33,0,.49-.17.49-.52v-15.98Zm10.55-.84c-2.6,0-4.95.39-7.06,1.16-.19.08-.24.27-.15.58l.26.9c.08.29.31.36.7.21,1.61-.7,3.58-1.05,5.93-1.05,2.77,0,4.16,1.29,4.16,3.87,0,2.15-.49,4.29-1.48,6.42-1.08,2.37-2.35,3.55-3.81,3.55-.04,0-.13-.01-.29-.03-.16-.02-.26-.03-.32-.03-.21-.04-.35.04-.41.23l-.23.87c-.04.21-.03.36.03.44.13.2.58.29,1.33.29,2.25,0,4.14-1.3,5.67-3.89,1.41-2.38,2.12-5.04,2.12-7.96,0-3.7-2.15-5.55-6.45-5.55m-3.98,6.04c0-.31-.16-.47-.49-.47h-1.45c-.35,0-.52.17-.52.5v16.53c0,.37.19.55.58.55h1.43c.31,0,.46-.18.46-.55v-16.56Zm16.48-5.2c0-.37-.15-.55-.46-.55h-1.45c-.35,0-.52.19-.52.58v15.98c0,.33.16.49.49.49h1.45c.33,0,.49-.17.49-.52v-15.98Z"/>
  <path class="cls-1" d="m432.32,195.81c0-.37-.15-.55-.46-.55h-1.45c-.35,0-.52.19-.52.58v21.8c0,.33.16.49.49.49h1.45c.33,0,.49-.18.49-.52v-21.79Zm16.39,5.09c0-1.96-.61-3.46-1.83-4.5-1.14-.97-2.68-1.45-4.62-1.45-2.38,0-4.54.64-6.48,1.92-.18.12-.2.27-.09.47l.58.9c.12.19.28.21.49.06,1.45-1.03,3.07-1.54,4.85-1.54,3.08,0,4.62,1.43,4.62,4.27v10.78c0,.35.18.52.52.52h1.45c.33,0,.49-.18.49-.55v-10.87Zm-9.79,10.87v-9.88c0-.33-.15-.49-.47-.49h-1.45c-.37,0-.55.18-.55.55v9.85c0,.35.17.52.52.52h1.48c.33,0,.49-.18.49-.55h-.03Zm16.27-15.95c0-.37-.16-.55-.47-.55h-1.45c-.35,0-.52.19-.52.58v15.98c0,.33.17.5.49.5h1.45c.33,0,.5-.18.5-.52v-15.98Zm15.08,4.94c0-1.86-.52-3.28-1.56-4.27-1.04-.99-2.43-1.48-4.2-1.48-2.32,0-4.35.5-6.07,1.51-.17.1-.2.25-.09.47l.55.99c.1.16.24.17.44.06,1.32-.83,2.8-1.25,4.45-1.25,2.67,0,4.01,1.36,4.01,4.1v10.93c0,.35.18.52.52.52h1.45c.33,0,.49-.18.49-.55v-11.01Zm10.52-5.78c-2.6,0-4.95.39-7.06,1.16-.19.08-.24.27-.15.58l.26.9c.08.29.31.36.7.2,1.61-.7,3.58-1.05,5.93-1.05,2.77,0,4.16,1.29,4.16,3.86,0,2.15-.49,4.29-1.48,6.42-1.09,2.36-2.35,3.54-3.81,3.54-.04,0-.13-.01-.29-.03-.15-.02-.26-.03-.32-.03-.21-.04-.35.04-.41.23l-.23.87c-.04.21-.03.36.03.44.13.19.58.29,1.34.29,2.25,0,4.14-1.3,5.67-3.89,1.41-2.38,2.12-5.04,2.12-7.96,0-3.7-2.15-5.55-6.45-5.55m-3.98,6.04c0-.31-.17-.47-.49-.47h-1.45c-.35,0-.52.17-.52.5v16.53c0,.37.19.55.58.55h1.42c.31,0,.47-.18.47-.55v-16.56Zm23.77-5.2c0-.37-.16-.55-.49-.55h-1.45c-.35,0-.52.19-.52.58v8.66c0,.31.15.4.46.26l1.51-.67c.33-.15.49-.4.49-.73v-7.55Zm13.34-.55h-7.5l-.44-5.4c-.02-.19-.13-.29-.35-.29l-1.6.17c-.27.04-.4.17-.38.41l.46,6.48c.02.23.12.35.29.35h8.25c.15,0,.23.1.23.29l-1.05,8.58c-.19,1.59-.47,2.67-.84,3.25-.72,1.12-2.05,1.79-4.01,2-.23.02-.31.15-.23.38l.15.84c.04.21.17.31.41.29,2.46-.13,4.24-.86,5.35-2.18.83-1.03,1.39-2.63,1.68-4.82l1.13-8.6c.16-1.16-.37-1.75-1.57-1.75m7.87.55c0-.37-.16-.55-.47-.55h-1.45c-.35,0-.52.19-.52.58v15.98c0,.33.17.5.5.5h1.45c.33,0,.49-.18.49-.52v-15.98Zm16.77,4.91c-.1-1.76-.72-3.16-1.87-4.2-1.15-1.04-2.68-1.55-4.58-1.55-2.68,0-4.78.44-6.28,1.31-.1.06-.14.16-.12.29,0,.13.05.25.14.35l.76.87-.9,13.98c-.02.29.1.45.35.47l1.6.17c.25.02.39-.12.41-.44l.93-14.82c.77-.37,1.61-.55,2.5-.55,2.9,0,4.45,1.46,4.62,4.39l.64,10.93c.02.37.18.53.49.49l1.57-.17c.23-.02.34-.2.32-.55l-.58-10.96Zm16.53,10.26c0-.25-.1-.38-.29-.38h-1.34v-9.94c0-3.78-2-5.67-6.02-5.67-2.17,0-3.95.54-5.34,1.63-.18.14-.18.33,0,.58l.46.7c.15.23.35.26.58.09,1.08-.87,2.44-1.31,4.07-1.31,1.1,0,2,.31,2.67.93.74.7,1.11,1.73,1.11,3.08v9.91h-8.66c-.25,0-.38.13-.38.38v.99c0,.23.13.35.38.35h12.47c.19,0,.29-.11.29-.32v-1.02Z"/>
  <path class="cls-1" d="m442.2,170.13c0-1.96-.61-3.46-1.83-4.5-1.14-.97-2.69-1.45-4.62-1.45-2.38,0-4.54.64-6.48,1.92-.18.12-.2.27-.09.47l.58.9c.12.19.28.22.49.06,1.45-1.03,3.07-1.54,4.85-1.54,3.08,0,4.62,1.42,4.62,4.27v10.78c0,.35.18.52.52.52h1.45c.33,0,.5-.18.5-.55v-10.87Zm-9.79,10.87v-9.88c0-.33-.15-.49-.47-.49h-1.45c-.37,0-.55.18-.55.55v9.85c0,.35.17.52.52.52h1.48c.33,0,.49-.18.49-.55h-.03Zm22.8-14.33c-1.37-1.65-3.11-2.47-5.22-2.47-1.96,0-3.52.47-4.68,1.42-.23.19-.28.39-.14.58l.49.76c.13.21.32.23.55.06.89-.72,1.92-1.08,3.08-1.08,1.65,0,2.95.62,3.92,1.86.97,1.24,1.45,2.95,1.45,5.12s-.49,3.88-1.45,5.2c-.97,1.32-2.28,1.98-3.92,1.98-1.03,0-2.04-.38-3.05-1.13-.25-.19-.46-.17-.61.09l-.44.67c-.15.25-.12.47.12.64,1.32.95,2.88,1.43,4.68,1.43,2.15,0,3.91-.86,5.29-2.59,1.32-1.69,1.98-3.77,1.98-6.25s-.68-4.63-2.05-6.28m7.95-1.63c0-.37-.16-.55-.49-.55h-1.45c-.35,0-.52.2-.52.58v8.66c0,.31.15.4.46.26l1.51-.67c.33-.16.49-.4.49-.73v-7.55Zm17.29,3.76c-.29-3.12-1.8-4.69-4.53-4.69-2.08,0-3.87.83-5.38,2.5-.76-1.12-1.85-1.96-3.28-2.5-.15-.06-.31.02-.46.23l-.41.7c-.12.2-.03.4.26.61,1.22.87,1.83,1.92,1.83,3.14,0,.19-.02.39-.06.58l-1.69,11.7c-.04.33.06.5.29.52l1.57.18c.29.04.47-.11.52-.44l2.01-13.25c1.1-1.48,2.47-2.21,4.1-2.21s2.61,1.05,2.79,3.14l.58,6.92c.12,1.28-.09,2.3-.61,3.05-.58.81-1.48,1.22-2.7,1.22-.72,0-1.38-.12-1.98-.35-.27-.1-.45-.04-.52.17l-.32.96c-.08.23-.01.39.2.46.7.29,1.65.44,2.85.44,3.72,0,5.58-1.87,5.58-5.62,0-.33-.02-.68-.06-1.05l-.58-6.43Zm18.08,1.53c-.12-2.13-.82-3.72-2.12-4.77-1.12-.91-2.64-1.36-4.53-1.36-2.5,0-4.83.5-7,1.51-.25.12-.31.31-.17.58l.41.79c.1.19.25.25.46.17l1.34-.47-.23,10.34c-.04,2.03-1,3.13-2.88,3.29-.31.02-.41.22-.29.61l.23.78c.04.15.17.23.38.23,3.27-.31,4.93-1.96,4.97-4.94l.18-10.84c.72-.27,1.45-.41,2.21-.41,2.89,0,4.42,1.48,4.59,4.45l.64,10.81c.02.39.18.56.5.52l1.39-.18c.35-.04.51-.21.49-.52l-.55-10.61Zm13.39-5.84h-7.5l-.44-5.4c-.02-.19-.13-.29-.35-.29l-1.6.18c-.27.04-.4.17-.38.41l.47,6.48c.02.23.12.35.29.35h8.25c.15,0,.23.1.23.29l-1.05,8.57c-.19,1.59-.47,2.67-.84,3.26-.72,1.12-2.05,1.79-4.01,2.01-.23.02-.31.15-.23.38l.15.84c.04.21.17.31.41.29,2.46-.13,4.24-.86,5.35-2.18.83-1.02,1.39-2.63,1.69-4.82l1.13-8.6c.15-1.16-.37-1.74-1.57-1.74m25.02,5.64c0-1.96-.61-3.46-1.83-4.5-1.14-.97-2.68-1.45-4.62-1.45-2.38,0-4.54.64-6.48,1.92-.17.12-.2.27-.09.47l.58.9c.12.19.28.22.49.06,1.45-1.03,3.07-1.54,4.85-1.54,3.08,0,4.62,1.42,4.62,4.27v10.78c0,.35.18.52.52.52h1.45c.33,0,.49-.18.49-.55v-10.87Zm-9.79,10.87v-9.88c0-.33-.15-.49-.46-.49h-1.45c-.37,0-.55.18-.55.55v9.85c0,.35.17.52.52.52h1.48c.33,0,.49-.18.49-.55h-.03Zm27.43-10.67c-.12-2.13-.82-3.72-2.12-4.77-1.12-.91-2.64-1.36-4.53-1.36-2.5,0-4.83.5-7,1.51-.25.12-.31.31-.17.58l.4.79c.1.19.25.25.46.17l1.34-.47-.23,10.34c-.04,2.03-1,3.13-2.88,3.29-.31.02-.41.22-.29.61l.23.78c.04.15.17.23.38.23,3.27-.31,4.93-1.96,4.97-4.94l.17-10.84c.72-.27,1.45-.41,2.21-.41,2.89,0,4.42,1.48,4.59,4.45l.64,10.81c.02.39.18.56.49.52l1.39-.18c.35-.04.51-.21.49-.52l-.55-10.61Zm6.57-5.29c0-.37-.15-.55-.47-.55h-1.45c-.35,0-.52.2-.52.58v15.98c0,.33.17.5.5.5h1.45c.33,0,.49-.18.49-.52v-15.98Zm17.29,3.76c-.29-3.12-1.8-4.69-4.53-4.69-2.07,0-3.86.83-5.38,2.5-.76-1.12-1.85-1.96-3.28-2.5-.15-.06-.31.02-.47.23l-.41.7c-.12.2-.03.4.26.61,1.22.87,1.83,1.92,1.83,3.14,0,.19-.02.39-.06.58l-1.68,11.7c-.04.33.06.5.29.52l1.57.18c.29.04.46-.11.52-.44l2-13.25c1.11-1.48,2.47-2.21,4.1-2.21s2.61,1.05,2.79,3.14l.58,6.92c.12,1.28-.09,2.3-.61,3.05-.58.81-1.48,1.22-2.7,1.22-.72,0-1.38-.12-1.98-.35-.27-.1-.45-.04-.52.17l-.32.96c-.08.23-.01.39.2.46.7.29,1.65.44,2.85.44,3.72,0,5.58-1.87,5.58-5.62,0-.33-.02-.68-.06-1.05l-.58-6.43Zm16.72-4.24c-.05-.07-.17-.11-.36-.13l-1.51-.15c-.33-.04-.5.1-.52.41l-.64,8.95c-.23,3.27-1.45,5.36-3.66,6.27l-3.54-15.2c-.08-.37-.31-.51-.7-.44l-1.51.29c-.31.06-.41.32-.29.79l3.92,15.17-3.87,1.07c-.21.06-.32.16-.32.32,0,.04.02.11.06.2l.29.9c.08.23.24.31.49.23l5.69-1.66c3.7-1.07,5.69-3.76,5.96-8.07l.55-8.57c.02-.2,0-.33-.04-.39m16.4,5.56c0-1.96-.61-3.46-1.83-4.5-1.15-.97-2.69-1.45-4.62-1.45-2.38,0-4.54.64-6.48,1.92-.18.12-.2.27-.09.47l.58.9c.12.19.28.22.49.06,1.45-1.03,3.07-1.54,4.85-1.54,3.08,0,4.62,1.42,4.62,4.27v10.78c0,.35.17.52.52.52h1.46c.33,0,.49-.18.49-.55v-10.87Zm-9.79,10.87v-9.88c0-.33-.16-.49-.47-.49h-1.45c-.37,0-.55.18-.55.55v9.85c0,.35.18.52.52.52h1.48c.33,0,.49-.18.49-.55h-.03Z"/>
  <path class="cls-1" d="m154.44,197.12h-2.96v-1.31c.03-1.63-.03-2.9,2-2.9.44,0,.84.06,1.34.15v-1.57c-.58-.09-1.02-.12-1.54-.12-2.94,0-3.66,1.8-3.63,4.39v1.36h-2.56v1.54h2.56v13.45h1.83v-13.45h2.96v-1.54Zm8.08-.44c-4.59,0-7.09,3.63-7.09,7.93s2.5,7.93,7.09,7.93,7.09-3.63,7.09-7.93-2.5-7.93-7.09-7.93m0,1.54c3.52,0,5.26,3.2,5.26,6.39s-1.74,6.39-5.26,6.39-5.26-3.2-5.26-6.39,1.74-6.39,5.26-6.39m9.82,13.89h1.83v-7.99c0-3.11,2.27-5.55,5.58-5.38v-1.83c-2.7-.12-4.74,1.31-5.67,3.72h-.06v-3.52h-1.68v14.99Zm34.73-14.47c-.52-4.36-4.42-6.71-8.34-6.71-6.54,0-9.79,5.14-9.79,10.81s3.26,10.81,9.79,10.81c4.85,0,8.08-3.26,8.63-8.34h-1.98c-.38,3.69-2.82,6.65-6.65,6.65-5.49,0-7.82-4.59-7.82-9.12s2.32-9.13,7.82-9.13c3.02,0,5.67,1.83,6.36,5.03h1.98Zm2.96,14.47h1.83v-7.99c0-3.11,2.27-5.55,5.58-5.38v-1.83c-2.7-.12-4.74,1.31-5.67,3.72h-.06v-3.52h-1.68v14.99Zm14.97-15.43c-4.59,0-7.09,3.63-7.09,7.93s2.5,7.93,7.09,7.93,7.09-3.63,7.09-7.93-2.5-7.93-7.09-7.93m0,1.54c3.52,0,5.26,3.2,5.26,6.39s-1.74,6.39-5.26,6.39-5.26-3.2-5.26-6.39,1.74-6.39,5.26-6.39m9.79,13.89h1.83v-8.74c.06-2.94,1.8-5.14,4.71-5.14s3.81,1.95,3.81,4.53v9.36h1.83v-9.65c0-3.58-1.28-5.78-5.49-5.78-2.12,0-4.13,1.22-4.8,3.02h-.06v-8.34h-1.83v20.75Zm15.61,0h1.83v-8.74c.06-2.94,1.8-5.14,4.71-5.14s3.81,1.95,3.81,4.53v9.36h1.83v-9.65c0-3.58-1.28-5.78-5.49-5.78-2.12,0-4.13,1.22-4.8,3.02h-.06v-2.58h-1.83v14.99Zm14.96-17.28v3.08h1.22c.06.96-.38,2.38-1.34,2.73v1.25c1.74-.49,2.53-2.27,2.56-3.95v-3.11h-2.44Zm17.23,6.67c-.12-3.26-2.5-4.82-5.49-4.82-2.64,0-5.64,1.16-5.64,4.21,0,2.56,1.8,3.37,4.18,4.01l2.35.52c1.66.41,3.28.99,3.28,2.73,0,2.09-2.38,2.85-4.1,2.85-2.44,0-4.27-1.28-4.41-3.75h-1.83c.29,3.66,2.67,5.29,6.16,5.29,2.79,0,6.02-1.25,6.02-4.5,0-2.62-2.18-3.84-4.27-4.16l-2.44-.55c-1.25-.32-3.11-.9-3.11-2.53,0-1.95,1.92-2.58,3.54-2.58,2.09,0,3.84,1.02,3.92,3.28h1.83Zm13.57-8.46h4.21c5.96-.03,8.54,2.5,8.54,8.69s-2.59,8.72-8.54,8.69h-4.21v-17.38Zm-1.98,19.06h7.18c6.25-.14,9.53-3.57,9.53-10.37s-3.28-10.23-9.53-10.37h-7.18v20.75Zm19.59,0h1.83v-14.99h-1.83v14.99Zm0-17.81h1.83v-2.94h-1.83v2.94Zm16.16,7.21c-.12-3.26-2.5-4.82-5.49-4.82-2.64,0-5.64,1.16-5.64,4.21,0,2.56,1.8,3.37,4.19,4.01l2.35.52c1.66.41,3.28.99,3.28,2.73,0,2.09-2.38,2.85-4.1,2.85-2.44,0-4.27-1.28-4.42-3.75h-1.83c.29,3.66,2.67,5.29,6.16,5.29,2.79,0,6.02-1.25,6.02-4.5,0-2.62-2.18-3.84-4.27-4.16l-2.44-.55c-1.25-.32-3.11-.9-3.11-2.53,0-1.95,1.92-2.58,3.55-2.58,2.09,0,3.83,1.02,3.92,3.28h1.83Zm15.78,3.6c.15-4.21-1.77-8.43-6.6-8.43s-6.77,3.98-6.77,7.93c0,4.27,2,7.93,6.77,7.93,3.78,0,5.76-1.98,6.54-5.38h-1.83c-.58,2.27-2.03,3.84-4.71,3.84-3.51,0-4.91-3.23-4.94-5.9h11.54Zm-11.54-1.54c.29-2.73,1.95-5.35,4.94-5.35s4.68,2.58,4.77,5.35h-9.71Zm23.6,2.73c.03,2.93-2.44,4.71-5.23,4.71-1.71,0-3.34-1.13-3.34-2.96,0-2.94,3.87-2.91,6.98-3.46.49-.09,1.31-.23,1.54-.67h.06v2.38Zm-7.93-4.59c.06-2.44,1.75-3.49,4.01-3.49s3.92.61,3.92,3.08c0,1.66-.84,1.86-2.35,2.03-3.95.47-8.05.61-8.05,4.82,0,3.02,2.27,4.39,5.03,4.39s4.18-1.11,5.46-3.05h.06c0,1.57.29,2.61,2.15,2.61.49,0,.79-.03,1.19-.12v-1.54c-.15.06-.38.12-.58.12-.73,0-1.08-.4-1.08-1.1v-7.96c0-4.01-2.88-4.82-5.52-4.82-3.43,0-5.9,1.51-6.07,5.03h1.83Zm24.24-.2c-.12-3.26-2.5-4.82-5.49-4.82-2.64,0-5.64,1.16-5.64,4.21,0,2.56,1.8,3.37,4.18,4.01l2.35.52c1.66.41,3.28.99,3.28,2.73,0,2.09-2.38,2.85-4.1,2.85-2.44,0-4.27-1.28-4.42-3.75h-1.83c.29,3.66,2.67,5.29,6.16,5.29,2.79,0,6.02-1.25,6.02-4.5,0-2.62-2.18-3.84-4.27-4.16l-2.44-.55c-1.25-.32-3.11-.9-3.11-2.53,0-1.95,1.92-2.58,3.54-2.58,2.09,0,3.84,1.02,3.92,3.28h1.83Zm15.78,3.6c.14-4.21-1.77-8.43-6.6-8.43s-6.77,3.98-6.77,7.93c0,4.27,2.01,7.93,6.77,7.93,3.78,0,5.76-1.98,6.54-5.38h-1.83c-.58,2.27-2.03,3.84-4.71,3.84-3.52,0-4.91-3.23-4.94-5.9h11.54Zm-11.54-1.54c.29-2.73,1.95-5.35,4.94-5.35s4.68,2.58,4.77,5.35h-9.7Z"/>
  <path class="cls-1" d="m121.85,160.57h7.23v19.06h1.98v-19.06h7.23v-1.68h-16.45v1.68Zm18.02,19.06h1.83v-8.75c.06-2.94,1.8-5.14,4.71-5.14s3.81,1.95,3.81,4.53v9.36h1.83v-9.65c0-3.58-1.28-5.78-5.49-5.78-2.12,0-4.13,1.22-4.79,3.02h-.06v-8.34h-1.83v20.75Zm28.25-7c.14-4.21-1.77-8.43-6.6-8.43s-6.77,3.98-6.77,7.93c0,4.27,2,7.93,6.77,7.93,3.78,0,5.76-1.98,6.54-5.38h-1.83c-.58,2.27-2.03,3.84-4.71,3.84-3.51,0-4.91-3.22-4.94-5.9h11.54Zm-11.54-1.54c.29-2.73,1.95-5.35,4.94-5.35s4.68,2.59,4.77,5.35h-9.7Zm22.58,8.54h1.98v-20.75h-1.98v20.75Zm16.77-10.61c-.12-3.25-2.5-4.82-5.49-4.82-2.64,0-5.64,1.16-5.64,4.21,0,2.56,1.8,3.37,4.18,4.01l2.35.52c1.66.41,3.28.99,3.28,2.73,0,2.09-2.38,2.85-4.1,2.85-2.44,0-4.27-1.28-4.42-3.75h-1.83c.29,3.66,2.67,5.29,6.16,5.29,2.79,0,6.02-1.25,6.02-4.51,0-2.62-2.18-3.83-4.27-4.15l-2.44-.55c-1.25-.32-3.11-.9-3.11-2.53,0-1.95,1.92-2.59,3.55-2.59,2.09,0,3.83,1.02,3.92,3.28h1.83Zm3.17,10.61h1.83v-7.99c0-3.11,2.27-5.55,5.58-5.37v-1.83c-2.7-.12-4.73,1.31-5.67,3.72h-.06v-3.51h-1.69v14.99Zm18.74-5.81c.03,2.94-2.44,4.71-5.23,4.71-1.71,0-3.34-1.14-3.34-2.97,0-2.94,3.86-2.9,6.98-3.46.49-.09,1.31-.23,1.54-.67h.06v2.38Zm-7.93-4.59c.06-2.44,1.74-3.49,4.01-3.49,2.15,0,3.92.61,3.92,3.08,0,1.66-.84,1.86-2.35,2.03-3.95.47-8.05.61-8.05,4.82,0,3.02,2.27,4.39,5.03,4.39s4.18-1.11,5.46-3.05h.06c0,1.57.29,2.62,2.15,2.62.49,0,.79-.03,1.19-.12v-1.54c-.15.06-.38.12-.58.12-.72,0-1.07-.41-1.07-1.1v-7.96c0-4.01-2.88-4.82-5.52-4.82-3.43,0-5.9,1.51-6.07,5.03h1.83Zm26.04,3.4c.15-4.21-1.77-8.43-6.6-8.43s-6.77,3.98-6.77,7.93c0,4.27,2.01,7.93,6.77,7.93,3.78,0,5.76-1.98,6.54-5.38h-1.83c-.58,2.27-2.03,3.84-4.71,3.84-3.52,0-4.91-3.22-4.94-5.9h11.54Zm-11.54-1.54c.29-2.73,1.95-5.35,4.94-5.35s4.68,2.59,4.77,5.35h-9.7Zm14.03,8.54h1.83v-20.75h-1.83v20.75Zm13.77,0h1.98v-9.88h9.94v-1.69h-9.94v-7.5h11.19v-1.68h-13.16v20.75Zm21.59-15.43c-4.59,0-7.09,3.63-7.09,7.93s2.5,7.93,7.09,7.93,7.09-3.63,7.09-7.93-2.5-7.93-7.09-7.93m0,1.54c3.52,0,5.26,3.2,5.26,6.39s-1.74,6.39-5.26,6.39-5.26-3.2-5.26-6.39,1.74-6.39,5.26-6.39m21.97-1.1h-1.83v7.87c0,3.05-1.36,6.02-4.5,6.02-2.91,0-3.92-1.43-4.01-4.13v-9.76h-1.83v9.74c0,3.49,1.48,5.7,5.26,5.7,2.24,0,4.21-1.13,5.17-3.14h.06v2.7h1.68v-14.99Zm3.43,14.99h1.83v-8.75c.06-2.94,1.8-5.14,4.71-5.14s3.81,1.95,3.81,4.53v9.36h1.83v-9.65c0-3.58-1.28-5.78-5.49-5.78-2.12,0-4.13,1.22-4.79,3.02h-.06v-2.59h-1.83v14.99Zm16.82-7.5c0-3.11,1.43-6.39,4.91-6.39,3.89,0,5.26,3.28,5.26,6.39s-1.36,6.39-5.26,6.39c-3.49,0-4.91-3.28-4.91-6.39m12-13.25h-1.83v8.6h-.06c-.79-2.15-2.96-3.28-5.2-3.28-4.56,0-6.74,3.69-6.74,7.93s2.18,7.93,6.74,7.93c2.18,0,4.56-1.34,5.35-3.29h.06v2.85h1.69v-20.75Zm13.08,14.94c.03,2.94-2.44,4.71-5.23,4.71-1.71,0-3.34-1.14-3.34-2.97,0-2.94,3.86-2.9,6.97-3.46.49-.09,1.31-.23,1.54-.67h.06v2.38Zm-7.93-4.59c.06-2.44,1.75-3.49,4.01-3.49s3.92.61,3.92,3.08c0,1.66-.84,1.86-2.35,2.03-3.95.47-8.05.61-8.05,4.82,0,3.02,2.27,4.39,5.02,4.39s4.19-1.11,5.46-3.05h.06c0,1.57.29,2.62,2.15,2.62.49,0,.78-.03,1.19-.12v-1.54c-.15.06-.38.12-.58.12-.73,0-1.07-.41-1.07-1.1v-7.96c0-4.01-2.88-4.82-5.52-4.82-3.43,0-5.9,1.51-6.07,5.03h1.83Zm16.33-9.1h-1.83v4.5h-2.61v1.54h2.61v10.26c-.03,2.56.81,3.37,3.26,3.37.55,0,1.07-.06,1.63-.06v-1.57c-.52.06-1.05.09-1.57.09-1.31-.09-1.48-.78-1.48-1.98v-10.11h3.05v-1.54h-3.05v-4.5Zm5.72,19.5h1.83v-14.99h-1.83v14.99Zm0-17.81h1.83v-2.94h-1.83v2.94Zm11.68,2.38c-4.59,0-7.09,3.63-7.09,7.93s2.5,7.93,7.09,7.93,7.09-3.63,7.09-7.93-2.5-7.93-7.09-7.93m0,1.54c3.52,0,5.26,3.2,5.26,6.39s-1.75,6.39-5.26,6.39-5.26-3.2-5.26-6.39,1.75-6.39,5.26-6.39m9.79,13.89h1.83v-8.75c.06-2.94,1.8-5.14,4.71-5.14s3.81,1.95,3.81,4.53v9.36h1.83v-9.65c0-3.58-1.28-5.78-5.49-5.78-2.12,0-4.13,1.22-4.8,3.02h-.06v-2.59h-1.83v14.99Z"/>
  <path class="cls-1" d="m465.72,84.95c-10.01-8.66-22.81-14.15-38.41-16.46-6.26-.96-10.73-.62-13.43,1.01-7.41,4.43-13.33,9.1-17.76,14.01-1.54,1.64-2.31,3.47-2.31,5.49,0,2.99,1.92,4.48,5.77,4.48,37.35,0,56.03,8.18,56.03,24.55,0,4.24-2.41,8.62-7.22,13.14-4.43,4.14-9.58,7.17-15.45,9.1-4.24,1.35-6.35,3.56-6.35,6.64,0,1.73.82,3.13,2.45,4.19,1.63,1.06,3.8,1.39,6.5,1.01,9.14-1.16,18.24-4.86,27.29-11.12,11.55-7.99,17.33-17.52,17.33-28.59,0-9.91-4.82-19.06-14.44-27.43"/>
  <path class="cls-1" d="m425.1,132.41c0-2.02-.6-3.61-1.8-4.76-1.2-1.16-2.58-1.74-4.12-1.74-.68,0-1.35.15-2.02.44-6.65,2.7-12.47,5.92-17.47,9.68-3.09,2.31-4.48,5.72-4.19,10.24,1.15,15.02,2.07,24.89,2.74,29.61,2.21,14.44,8.7,75.82,13.52,82.75,2.5,3.56,5,5.34,7.5,5.34,3.08,0,4.63-2.07,4.63-6.21,0-.87-.09-1.73-.29-2.6-1.93-7.41-5.57-66.53-5-75.96.87-14.25,2.94-29.07,6.21-44.48.19-.77.29-1.54.29-2.31"/>
  <path class="cls-1" d="m372.89,50.74c10.01-8.66,22.81-14.15,38.41-16.46,6.26-.96,10.73-.63,13.42,1.01,7.42,4.43,13.34,9.1,17.76,14.01,1.54,1.64,2.31,3.47,2.31,5.49,0,2.98-1.92,4.47-5.77,4.47-37.35,0-56.02,8.18-56.02,24.55,0,4.24,2.4,8.61,7.22,13.14,15.35,10.83,32.26,12.02,38.14,13.95,4.24,1.35,6.35,3.56,6.35,6.65,0,1.73-.82,3.13-2.45,4.18-1.64,1.06-3.8,1.4-6.5,1.01-9.15-1.16-32.9-4.86-49.97-15.96-11.55-7.99-17.33-17.52-17.33-28.59,0-9.91,4.81-19.06,14.44-27.44"/>
  <path class="cls-1" d="m388.33,233.08c-.12-3.3-2.53-4.88-5.56-4.88-2.68,0-5.71,1.17-5.71,4.27,0,2.59,1.82,3.42,4.24,4.06l2.39.53c1.68.42,3.33,1.01,3.33,2.77,0,2.12-2.42,2.89-4.15,2.89-2.47,0-4.33-1.29-4.48-3.8h-1.85c.29,3.71,2.71,5.36,6.24,5.36,2.83,0,6.09-1.26,6.09-4.56,0-2.65-2.21-3.89-4.33-4.21l-2.48-.56c-1.27-.33-3.15-.92-3.15-2.57,0-1.97,1.94-2.62,3.59-2.62,2.12,0,3.89,1.03,3.98,3.33h1.85Zm-16.37-7.3h1.85v-2.97h-1.85v2.97Zm0,18.05h1.85v-15.19h-1.85v15.19Zm-5.8-19.76h-1.85v4.56h-2.65v1.56h2.65v10.4c-.03,2.59.82,3.41,3.29,3.41.56,0,1.09-.06,1.65-.06v-1.59c-.53.06-1.06.09-1.59.09-1.33-.09-1.5-.79-1.5-2v-10.25h3.09v-1.56h-3.09v-4.56Zm-8.36,1.7h1.85v-2.97h-1.85v2.97Zm0,18.05h1.85v-15.19h-1.85v15.19Zm-5.45,0h1.85v-21.02h-1.85v21.02Zm-9.99-14.08c3.56,0,5.33,3.24,5.33,6.48s-1.77,6.48-5.33,6.48-5.33-3.24-5.33-6.48,1.77-6.48,5.33-6.48m0-1.56c-4.65,0-7.18,3.68-7.18,8.04s2.53,8.04,7.18,8.04,7.18-3.68,7.18-8.04-2.53-8.04-7.18-8.04m-9.42.97c-.53-4.42-4.48-6.8-8.45-6.8-6.63,0-9.92,5.21-9.92,10.95s3.29,10.95,9.92,10.95c4.92,0,8.19-3.3,8.74-8.45h-2c-.38,3.74-2.86,6.74-6.74,6.74-5.57,0-7.92-4.65-7.92-9.25s2.36-9.25,7.92-9.25c3.06,0,5.74,1.86,6.45,5.1h2Zm-40.11,6.01c.29-2.77,1.97-5.42,5.01-5.42s4.74,2.62,4.83,5.42h-9.84Zm11.69,1.56c.15-4.27-1.79-8.54-6.68-8.54s-6.86,4.03-6.86,8.04c0,4.33,2.03,8.04,6.86,8.04,3.83,0,5.83-2,6.62-5.45h-1.85c-.59,2.3-2.06,3.89-4.77,3.89-3.56,0-4.98-3.27-5.01-5.98h11.69Zm-22.26,7.1h1.97l5.68-15.19h-1.91l-4.71,13.34h-.06l-4.77-13.34h-2.06l5.86,15.19Zm-9.57-18.05h1.85v-2.97h-1.85v2.97Zm0,18.05h1.85v-15.19h-1.85v15.19Zm-5.81-19.76h-1.85v4.56h-2.65v1.56h2.65v10.4c-.03,2.59.82,3.41,3.29,3.41.56,0,1.09-.06,1.65-.06v-1.59c-.53.06-1.06.09-1.59.09-1.33-.09-1.5-.79-1.5-2v-10.25h3.09v-1.56h-3.09v-4.56Zm-16.55,9.21c.06-2.47,1.77-3.53,4.07-3.53s3.98.62,3.98,3.12c0,1.68-.86,1.88-2.39,2.06-4.01.47-8.16.62-8.16,4.89,0,3.06,2.29,4.44,5.09,4.44s4.24-1.12,5.54-3.09h.06c0,1.59.29,2.65,2.18,2.65.5,0,.8-.03,1.21-.12v-1.56c-.15.06-.38.12-.59.12-.74,0-1.09-.41-1.09-1.12v-8.07c0-4.06-2.91-4.88-5.59-4.88-3.47,0-5.98,1.53-6.15,5.09h1.85Zm8.04,4.65c.03,2.97-2.48,4.77-5.3,4.77-1.74,0-3.39-1.15-3.39-3,0-2.97,3.92-2.94,7.07-3.51.5-.09,1.33-.24,1.56-.68h.06v2.42Zm-18.99,5.89h1.85v-8.1c0-3.15,2.3-5.63,5.65-5.45v-1.85c-2.74-.12-4.8,1.32-5.74,3.77h-.06v-3.56h-1.7v15.19Zm-14.2-8.65c.3-2.77,1.97-5.42,5.01-5.42s4.74,2.62,4.83,5.42h-9.84Zm11.69,1.56c.15-4.27-1.79-8.54-6.68-8.54s-6.86,4.03-6.86,8.04c0,4.33,2.03,8.04,6.86,8.04,3.83,0,5.83-2,6.62-5.45h-1.85c-.59,2.3-2.06,3.89-4.77,3.89-3.56,0-4.98-3.27-5.01-5.98h11.69Zm-15.49-3.33c-.41-3.47-2.92-5.21-6.16-5.21-4.65,0-7.18,3.68-7.18,8.04s2.53,8.04,7.18,8.04c3.39,0,5.77-2.23,6.27-5.89h-1.86c-.23,2.53-2.12,4.33-4.42,4.33-3.56,0-5.33-3.24-5.33-6.48s1.77-6.48,5.33-6.48c2.42,0,3.8,1.38,4.3,3.65h1.86Zm-17.99,10.42h1.85v-21.02h-1.85v21.02Zm-20.05-7.57c0,4.33,2.32,8.01,8.15,8.01s8.19-3.68,8.19-8.01v-13.46h-2v13.01c.03,4.89-2.3,6.74-6.19,6.74s-6.18-1.85-6.16-6.74v-13.01h-2v13.46Zm-11.87-13.46h-1.85v8.71h-.06c-.79-2.18-3-3.32-5.27-3.32-4.63,0-6.83,3.74-6.83,8.04s2.2,8.04,6.83,8.04c2.21,0,4.62-1.35,5.42-3.32h.06v2.88h1.7v-21.02Zm-12.16,13.43c0-3.15,1.44-6.48,4.98-6.48,3.95,0,5.33,3.33,5.33,6.48s-1.38,6.48-5.33,6.48c-3.54,0-4.98-3.33-4.98-6.48m-17.05,7.6h1.85v-8.86c.06-2.97,1.83-5.21,4.77-5.21s3.86,1.97,3.86,4.59v9.48h1.85v-9.78c0-3.62-1.29-5.86-5.56-5.86-2.15,0-4.18,1.23-4.86,3.06h-.06v-2.62h-1.85v15.19Zm-13.58-10.54c.06-2.47,1.77-3.53,4.06-3.53s3.98.62,3.98,3.12c0,1.68-.86,1.88-2.39,2.06-4.01.47-8.16.62-8.16,4.89,0,3.06,2.29,4.44,5.09,4.44s4.24-1.12,5.54-3.09h.06c0,1.59.29,2.65,2.17,2.65.5,0,.8-.03,1.21-.12v-1.56c-.15.06-.38.12-.59.12-.74,0-1.09-.41-1.09-1.12v-8.07c0-4.06-2.91-4.88-5.59-4.88-3.48,0-5.98,1.53-6.15,5.09h1.85Zm8.04,4.65c.03,2.97-2.47,4.77-5.3,4.77-1.74,0-3.39-1.15-3.39-3,0-2.97,3.92-2.94,7.07-3.51.5-.09,1.33-.24,1.56-.68h.06v2.42Z"/>
  <path class="cls-1" d="m659.04,295.4c0-3.95-1.06-6.75-3.18-8.42-1.81-1.41-4.63-2.12-8.44-2.12s-6.71.22-9.26.65v4.02c1.4-.22,2.84-.42,4.3-.58-1.31,1.85-1.97,3.8-1.97,5.87v7.87c0,3-.82,4.5-2.45,4.5-.52,0-.94-.18-1.26-.55l-.23.19v3.05c.34.76,1.13,1.13,2.38,1.13,1.72,0,3.12-.62,4.18-1.85,1.22-1.49,1.83-3.75,1.83-6.76v-11.24c0-1.41.07-2.17.2-2.26.14-.1.88-.15,2.22-.15,2.68,0,4.57.55,5.66,1.65,1.09,1.1,1.64,3.04,1.64,5.84v14.39h4.36v-15.23Zm-30.17-8.18c-1.55-1.67-3.57-2.5-6.04-2.5-1.81,0-3.24.41-4.29,1.23-1.04.82-2.07,2.25-3.07,4.28-.12.1-.21.14-.27.14-.15,0-.23-.11-.23-.34-.12-1.54-.72-2.86-1.78-3.95-.75-.76-1.82-1.13-3.22-1.13-.75,0-1.25.1-1.51.29v3.61h.3c1.68,0,2.52,1.76,2.52,5.27v16.51h4.37v-13.79c0-1.32.2-2.57.59-3.76,1.04-2.92,2.79-4.38,5.26-4.38,4.08,0,6.13,3.17,6.13,9.51,0,5.92-1.89,8.88-5.67,8.88-.65,0-1.28-.22-1.87-.65l-.32.14v3.66c.62.45,1.5.67,2.63.67,2.93,0,5.22-1,6.88-3.01,1.83-2.2,2.74-5.46,2.74-9.8,0-4.99-1.04-8.62-3.13-10.9m-25.83,3.51c0-1.97-.56-3.49-1.67-4.55-.91-.85-2.04-1.28-3.38-1.28h-.14c-1.07,0-1.75.08-2.06.24v3.66s.12-.02.27-.05h.3c1.55,0,2.33,1.07,2.33,3.2v8.28h4.34v-9.51Zm-14.8-2.57c-2.06-2.29-4.81-3.44-8.26-3.44-2.18,0-3.89.3-5.14.89v4.14h.27c1.37-.69,2.73-1.04,4.07-1.04,2.41,0,4.31.83,5.69,2.48,1.39,1.65,2.08,3.94,2.08,6.88s-.67,5.03-2.01,6.63c-1.34,1.6-3.26,2.39-5.76,2.39-1.46,0-2.8-.48-4.03-1.44h-.32v4.14c1.19.76,2.95,1.13,5.28,1.13,3.28,0,5.99-1.17,8.13-3.52,2.14-2.35,3.21-5.48,3.21-9.37,0-4.17-1.07-7.46-3.22-9.87m-33.49,8.98h-4.34v13.5h4.34v-13.5Zm14.06-.1c0-8.31-4.05-12.47-12.14-12.47-2.8,0-4.98.24-6.54.72v4.23h.18c1.43-.66,3.31-.99,5.62-.99,5.67,0,8.51,2.78,8.51,8.35v13.74h4.37v-13.6Zm-67.65-9.82c-1.55-1.67-3.57-2.5-6.04-2.5-1.81,0-3.24.41-4.29,1.23-1.04.82-2.07,2.25-3.07,4.28-.12.1-.21.14-.27.14-.15,0-.23-.11-.23-.34-.12-1.54-.72-2.86-1.78-3.95-.75-.76-1.82-1.13-3.22-1.13-.75,0-1.25.1-1.51.29v3.61h.3c1.68,0,2.52,1.76,2.52,5.27v16.51h4.37v-13.79c0-1.32.2-2.57.59-3.76,1.04-2.92,2.79-4.38,5.26-4.38,4.09,0,6.13,3.17,6.13,9.51,0,5.92-1.89,8.88-5.67,8.88-.66,0-1.28-.22-1.88-.65l-.32.14v3.66c.62.45,1.5.67,2.63.67,2.93,0,5.22-1,6.88-3.01,1.83-2.2,2.74-5.46,2.74-9.8,0-4.99-1.04-8.62-3.13-10.9m-25.83,3.51c0-1.97-.55-3.49-1.67-4.55-.91-.85-2.04-1.28-3.38-1.28h-.14c-1.07,0-1.75.08-2.06.24v3.66s.12-.02.27-.05h.3c1.56,0,2.33,1.07,2.33,3.2v8.28h4.34v-9.51Zm-11.58-5.68h-18.59v3.99h12.46c-1.04,1.75-1.71,3.14-2.01,4.19-.26.82-.39,1.9-.39,3.25v14.15h4.32v-17.25c0-2.89.58-4.41,1.74-4.57l2.47-.41v-3.34Zm-23.88-.05h-4.44v8.13c0,5.81-1.25,9.75-3.75,11.82-.29-.61-.47-1.07-.53-1.37l-5.37-18.58h-4.55l4.28,14.99c.75,2.49,1.96,4.67,3.64,6.55-1.49.85-3.86,1.54-7.11,2.07l-.09.29v3.8c1.13-.11,2.64-.48,4.55-1.11,2.06-.67,3.64-1.36,4.75-2.05,5.75-3.51,8.62-9.17,8.62-16.97v-7.58Zm-62.32.05h-11.3v3.99h5.44c-1.69,3.05-2.54,5.7-2.54,7.94v13.65h4.3v-17.25c0-2.89.58-4.41,1.74-4.57l2.36-.41v-3.34Zm-19.01,3.11c-2.06-2.29-4.81-3.44-8.25-3.44-2.18,0-3.89.3-5.15.89v4.14h.28c1.37-.69,2.73-1.04,4.07-1.04,2.41,0,4.31.83,5.69,2.48,1.39,1.65,2.08,3.94,2.08,6.88s-.67,5.03-2.01,6.63c-1.34,1.6-3.26,2.39-5.76,2.39-1.46,0-2.8-.48-4.02-1.44h-.32v4.14c1.19.76,2.95,1.13,5.28,1.13,3.28,0,5.99-1.17,8.13-3.52,2.14-2.35,3.21-5.48,3.21-9.37,0-4.17-1.07-7.46-3.22-9.87m-19.7,2.57c0-1.97-.56-3.49-1.67-4.55-.92-.85-2.04-1.28-3.38-1.28h-.14c-1.05,0-1.74.08-2.06.24v3.66s.12-.02.27-.05h.3c1.55,0,2.33,1.05,2.33,3.15v18.72h4.35v-19.9Zm-12.47,0c0-1.97-.56-3.49-1.67-4.55-.91-.85-2.04-1.28-3.38-1.28h-.14c-1.07,0-1.75.08-2.06.24v3.66s.12-.02.27-.05h.3c1.55,0,2.33,1.07,2.33,3.2v8.28h4.34v-9.51Zm-12.57,0c0-1.97-.55-3.49-1.67-4.55-.91-.85-2.04-1.28-3.38-1.28h-.14c-1.05,0-1.74.08-2.06.24v3.66s.12-.02.27-.05h.3c1.56,0,2.33,1.05,2.33,3.15v18.72h4.34v-19.9Zm-12.4,4.67c0-3.95-1.06-6.75-3.18-8.42-1.81-1.41-4.63-2.12-8.44-2.12s-6.71.22-9.26.65v4.02c1.4-.22,2.84-.42,4.3-.58-1.31,1.85-1.96,3.8-1.96,5.87v7.87c0,3-.82,4.5-2.45,4.5-.52,0-.94-.18-1.26-.55l-.23.19v3.05c.34.76,1.13,1.13,2.38,1.13,1.72,0,3.12-.62,4.18-1.85,1.22-1.49,1.83-3.75,1.83-6.76v-11.24c0-1.41.07-2.17.2-2.26.14-.1.88-.15,2.22-.15,2.68,0,4.57.55,5.66,1.65,1.09,1.1,1.63,3.04,1.63,5.84v14.39h4.37v-15.23Zm-69.74-8.18c-1.55-1.67-3.57-2.5-6.03-2.5-1.81,0-3.24.41-4.29,1.23-1.04.82-2.07,2.25-3.07,4.28-.12.1-.21.14-.27.14-.15,0-.23-.11-.23-.34-.12-1.54-.72-2.86-1.78-3.95-.75-.76-1.82-1.13-3.22-1.13-.75,0-1.25.1-1.51.29v3.61h.3c1.68,0,2.52,1.76,2.52,5.27v16.51h4.37v-13.79c0-1.32.2-2.57.59-3.76,1.04-2.92,2.79-4.38,5.26-4.38,4.08,0,6.13,3.17,6.13,9.51,0,5.92-1.89,8.88-5.67,8.88-.66,0-1.28-.22-1.88-.65l-.32.14v3.66c.62.45,1.5.67,2.63.67,2.93,0,5.22-1,6.88-3.01,1.83-2.2,2.74-5.46,2.74-9.8,0-4.99-1.04-8.62-3.13-10.9m-25.76,8.83c0-4.3-1.14-7.36-3.43-9.17-1.92-1.48-4.9-2.22-8.94-2.22-2.45,0-4.87.24-7.25.72v25.24h4.34v-21.78c.82-.16,1.73-.24,2.72-.24,2.8,0,4.79.47,5.94,1.42,1.51,1.22,2.27,3.54,2.27,6.95v13.65h4.34v-14.58Zm-41.74-.79h-4.3v25.22h4.3v-25.22Zm15.18-10.25h-20.05v4.09h15.71v5.08c0,6.4-2.32,10.79-6.95,13.16v3.73h.48c3.52-1.38,6.23-3.71,8.14-6.98,1.78-3.03,2.68-6.51,2.68-10.42v-8.66Zm-26.58,10.76c0-3.95-1.09-6.86-3.27-8.74-1.78-1.51-4.17-2.26-7.15-2.26-2.2,0-3.99.21-5.4.63v4.09h.27c1.01-.51,2.54-.77,4.6-.77,4.43,0,6.65,2.67,6.65,8.01v13.91h4.3v-14.87Z"/>
  <path class="cls-1" d="m255.94,302.48c4.09,0,7.41-3.32,7.41-7.41s-3.32-7.41-7.41-7.41-7.41,3.32-7.41,7.41,3.32,7.41,7.41,7.41"/>
  <path class="cls-1" d="m398,302.48c4.07,0,7.37-3.3,7.37-7.37s-3.3-7.37-7.37-7.37-7.37,3.3-7.37,7.37,3.3,7.37,7.37,7.37"/>
  <path class="cls-1" d="m525.41,302.48c4.07,0,7.37-3.3,7.37-7.37s-3.3-7.37-7.37-7.37-7.37,3.3-7.37,7.37,3.3,7.37,7.37,7.37"/>
  <line class="cls-2" x1="755" y1="263.5" x2="442" y2="263.5"/>
  <line class="cls-2" x1="393" y1="263.5" x2="80" y2="263.5"/>
</svg>